<?xml version="1.0" encoding="utf-8"?>
<!-- Svg Vector Icons : http://www.onlinewebfonts.com/icon -->
<!DOCTYPE svg PUBLIC "-//W3C//DTD SVG 1.1//EN" "http://www.w3.org/Graphics/SVG/1.1/DTD/svg11.dtd">
<svg version="1.1" xmlns="http://www.w3.org/2000/svg" xmlns:xlink="http://www.w3.org/1999/xlink" x="0px" y="0px" viewBox="0 0 256 256" enable-background="new 0 0 256 256" xml:space="preserve">
<metadata> Svg Vector Icons : http://www.onlinewebfonts.com/icon </metadata>
<g><g><g><path fill="#000000" d="M137.9,10.9c-5.4,1.7-9.7,7.3-9.7,12.5v1.3l-47.4,0.1L33.3,25l-2.2,1.3c-3.6,2.1-5.5,5.3-6.1,10.7l-0.3,2.6h88.7H202l-0.1-9.6c-0.1-9.4-0.2-9.6-1.4-11.9c-1.8-3.4-4.9-6-8.6-7.1c-2.8-0.9-4.2-0.9-27-0.9C142,10,140.7,10.1,137.9,10.9z"/><path fill="#000000" d="M10.1,115l0.1,60.8l1.2,2.6c1.5,3.2,4.4,6.2,7.3,7.5c2.1,1,2.3,1,40.9,1.1l38.8,0.1l0.3-8.6c0.4-12.2,1.8-19.2,6.1-29.8c4.1-10.2,10.2-19.1,18.8-27.3c8.1-7.8,16-13,25.3-16.8c10.1-4,17.4-5.5,28.1-6c12.7-0.5,23.7,1.7,35.6,6.8l4.1,1.8V80.8V54.3H113.4H10L10.1,115z"/><path fill="#000000" d="M173.6,113.6c-11.4,1.2-23.3,5.7-32.2,12c-5,3.6-12.3,10.9-15.9,16c-5.1,7.3-8.8,15.9-10.8,25.2c-1.5,6.9-1.5,18.9,0,25.8c5.8,27.3,25.9,47.1,53.3,52.5c5.7,1.2,17.8,1.2,23.5,0c27.7-5.4,48.1-25.8,53.6-53.6c0.6-3,0.8-6.4,0.8-11.8s-0.2-8.8-0.8-11.8c-5.4-27.4-25.5-47.8-52.5-53.3C188,113.8,177.7,113.2,173.6,113.6z M184.3,144.2c2.7,1.9,2.9,2.9,2.9,16.2v12h12.4c11.5,0,12.4,0,13.8,0.9c2.3,1.4,3.3,3.5,3.3,6.5c0,3.1-1.2,5.3-3.7,6.5c-1.4,0.7-3.1,0.8-13.7,0.8h-12.1v12.1c0,13.6-0.1,14.4-3.2,16.4c-2.2,1.5-6.2,1.5-8.4,0c-3-2-3.2-2.8-3.2-16.4v-12.1h-12c-13.3,0-14.3-0.2-16.2-3c-1.4-2-1.5-7,0-8.9c2-2.7,2.9-2.9,16.2-2.9h12.1l0.1-12.6c0.1-12.1,0.2-12.6,1.2-14c0.6-0.8,1.7-1.8,2.5-2.2C178.3,142.5,182.4,142.8,184.3,144.2z"/></g></g></g>
</svg>